<?xml version="1.0" encoding="utf-8"?>
<!-- Generator: Adobe Illustrator 19.1.0, SVG Export Plug-In . SVG Version: 6.00 Build 0)  -->
<svg version="1.1" xmlns="http://www.w3.org/2000/svg" xmlns:xlink="http://www.w3.org/1999/xlink" x="0px" y="0px"
	 viewBox="0 0 800 800" style="enable-background:new 0 0 800 800;" xml:space="preserve">
<style type="text/css">
	.st0{fill:#A1B5BC;}
	.st1{fill:#EEF2F3;}
	.st2{fill:#1189E0;}
	.st3{fill:#FFFFFF;}
	.st4{fill:#DFDDDB;}
	.st5{fill:#2C4257;}
	.st6{fill:#F9FDFF;}
	.st7{fill:#273244;}
	.st8{fill:#041728;}
	.st9{fill:#65859E;}
	.st10{fill:#231F20;}
	.st11{fill:#FEE1B9;}
	.st12{fill:#243547;}
	.st13{fill:#FFC5A8;}
	.st14{fill:#461811;}
	.st15{fill:#FCD1A7;}
	.st16{fill:#651B00;}
	.st17{fill:#A43105;}
	.st18{fill:#F7F7F7;}
	.st19{fill:#D719D1;}
	.st20{fill:#F1F2F2;}
	.st21{fill:#354B59;}
	.st22{fill:#FFF8FF;}
	.st23{fill:#DFDFE7;}
	.st24{fill:#F8FEFE;}
	.st25{fill:#452C87;}
	.st26{fill:#E9ECE1;}
	.st27{opacity:0.1;fill:#231F20;}
	.st28{fill:#0A4766;}
	.st29{fill:#046FA3;}
	.st30{fill:#690102;}
	.st31{fill:#69CBCC;}
	.st32{fill:#506875;}
	.st33{fill:#FFFEFF;}
	.st34{fill:#BCBEC0;}
	.st35{fill:#78C6CE;}
	.st36{fill:#027DA3;}
	.st37{fill:#FFFFFB;}
	.st38{fill:#22A1C2;}
	.st39{fill:#FFFAC3;}
	.st40{fill:#653E15;}
	.st41{fill:#99695B;}
	.st42{fill-rule:evenodd;clip-rule:evenodd;fill:#2C4257;}
	.st43{fill-rule:evenodd;clip-rule:evenodd;fill:#00C4D7;}
	.st44{fill-rule:evenodd;clip-rule:evenodd;fill:#FFAC32;}
	.st45{fill-rule:evenodd;clip-rule:evenodd;fill:#EB5A49;}
	.st46{fill-rule:evenodd;clip-rule:evenodd;fill:#FFFDFA;}
	.st47{fill-rule:evenodd;clip-rule:evenodd;fill:#69CBCC;}
	.st48{fill-rule:evenodd;clip-rule:evenodd;fill:#FFFFFF;}
	.st49{opacity:0.1;fill-rule:evenodd;clip-rule:evenodd;}
	.st50{opacity:0.3;fill:url(#SVGID_1_);}
	.st51{fill:#FFFFFD;}
	.st52{fill:#6E6D72;}
	.st53{fill:#0A646C;}
	.st54{fill:#FFFDFE;}
	.st55{fill:#FFFFFF;stroke:#ED1C24;stroke-width:0.6392;stroke-miterlimit:10;}
	.st56{fill:#FFFFFF;stroke:#231F20;stroke-width:0.6848;stroke-miterlimit:10;}
	.st57{fill:#43507C;}
	.st58{fill:#05F9D3;}
	.st59{fill:#EBEE49;}
	.st60{fill:#FDA833;}
	.st61{fill:#CA1C1D;}
	.st62{fill:#F76609;}
	.st63{fill:#F7F8FA;}
	.st64{fill:#DFE6EE;}
	.st65{fill:#207FB5;}
	.st66{fill:#C88141;}
	.st67{fill:#E98247;}
	.st68{fill:#F4BB38;}
	.st69{fill:#1D1916;}
	.st70{fill:#FF670C;}
	.st71{fill:#FF6700;}
	.st72{fill:none;stroke:#231F20;stroke-width:1.3415;stroke-miterlimit:10;}
	.st73{fill:#147FA3;}
	.st74{fill:#2F424C;}
	.st75{fill:#161414;}
	.st76{fill:#FFFFFF;stroke:#FFFFFF;stroke-width:0.5505;stroke-miterlimit:10;}
	.st77{opacity:0.3;fill:url(#SVGID_2_);}
	.st78{opacity:0.3;fill:url(#SVGID_3_);}
</style>
<g id="Background">
	<rect class="st0" width="800" height="800"/>
</g>
<g id="Objects">
	<g id="Scientists_in_lab">
		<g>
			<path class="st1" d="M106.1,411.4c0,0,19.4,13.2,26.2,13c6.8-0.2,25-19,25-19l7.4,7.1c0,0-17.6,21-29.9,23.8
				c-6.9,1.6-34.2-6.9-35.7-12.4"/>
			<path class="st2" d="M164,411.9c0,0,9.1-7.9,8.3-10.3c-0.1-0.7-1.1-0.4-1.7,0.1c0.7-1.4,0.9-1.7,0.4-2.2
				c-0.5-0.5-2.1,0.7-2.1,0.7s1.7-2,0.8-2.8c-0.9-0.8-2.3,0.8-2.3,0.8s1.6-1.7,0.8-2.4c-0.8-0.7-1.4,0-2.1,0.6c-0.7,0.7-3.6,5-3.6,5
				s1-3,1.9-4.3c0.9-1.3-0.4-2.7-2.2-0.1c-1.8,2.7-4.2,9.2-4.2,9.2L164,411.9z"/>
			<g>
				<rect x="166.5" y="383.1" class="st3" width="12" height="23.9"/>
				<path class="st4" d="M178.4,392.7V407c1.6-2.5,3.9-4,6.4-4c5,0,9,6.1,9,13.6c0,5.5-2.2,10.2-5.3,12.3h-2.4v-3.6h-7.8v1.8h2.2
					v13.3c10.6-1.2,18.8-11.4,18.8-23.8C199.3,403.4,190,392.7,178.4,392.7z"/>
				<rect x="169.2" y="427.4" class="st5" width="6.5" height="4.8"/>
				<rect x="166.5" y="428.9" class="st5" width="19.8" height="1.8"/>
				<rect x="160" y="422.9" class="st5" width="26.2" height="2.4"/>
				<rect x="168.2" y="407" class="st4" width="8.5" height="7.4"/>
				<rect x="168.2" y="375.7" class="st4" width="8.5" height="7.4"/>
				<rect x="167.6" y="373.8" class="st5" width="9.6" height="1.9"/>
				<g>
					<path class="st3" d="M174.2,419.3c0,0.3-0.1,0.6-0.4,0.8c-0.2,0.2-0.5,0.4-0.8,0.4h-1.2c-0.3,0-0.6-0.1-0.8-0.4
						c-0.2-0.2-0.3-0.5-0.3-0.8v-4.8h3.6V419.3z"/>
					<g>
						<g>
							<g>
								
									<rect x="161.8" y="409.4" transform="matrix(0.9284 0.3715 -0.3715 0.9284 164.6523 -33.6805)" class="st5" width="15.9" height="2.3"/>
							</g>
							<g>
								<polygon class="st5" points="162,408.6 168.1,414.5 176.7,414.5 								"/>
							</g>
						</g>
					</g>
					<path class="st3" d="M163,416.2c-0.2,0.2-0.5,0.4-0.8,0.4c-0.3,0-0.6-0.1-0.9-0.3l-0.9-0.8c-0.2-0.2-0.4-0.5-0.4-0.8
						c0-0.3,0.1-0.6,0.3-0.9l3.3-3.5l2.6,2.5L163,416.2z"/>
				</g>
				<path class="st5" d="M199.3,443.1h-17.2v-8.6c0-0.9,0.3-1.7,1-2.4c0.7-0.7,1.5-1,2.4-1h0.1c0.4,0,0.8,0.1,1.3,0.2
					c0.4,0.2,0.8,0.4,1.1,0.7L199.3,443.1z"/>
				<path class="st5" d="M154.5,445.5c-0.4,0-0.9,0.2-1.2,0.5c-0.3,0.3-0.5,0.8-0.5,1.2v3.1h6l0,0c0-0.2,0.1-0.4,0.2-0.5
					c0.1-0.1,0.3-0.2,0.5-0.2h40.4c0.2,0,0.4,0.1,0.5,0.2c0.1,0.1,0.2,0.3,0.2,0.5l0,0h6v-3.1c0-0.4-0.2-0.9-0.5-1.2
					c-0.3-0.3-0.8-0.5-1.2-0.5H154.5z"/>
				<path class="st5" d="M203.6,445.5h-47.9v-1.2c0-0.3,0.1-0.6,0.4-0.8c0.2-0.2,0.5-0.4,0.8-0.4h45.5c0.3,0,0.6,0.1,0.8,0.4
					c0.2,0.2,0.4,0.5,0.4,0.8V445.5z"/>
				<circle class="st3" cx="185.5" cy="434.5" r="1"/>
				<g>
					<path class="st5" d="M183.8,392.7c0,3-2.4,5.4-5.4,5.4c-3,0-5.4-2.4-5.4-5.4c0-3,2.4-5.4,5.4-5.4
						C181.4,387.3,183.8,389.7,183.8,392.7z"/>
					<circle class="st3" cx="178.4" cy="392.7" r="2.3"/>
				</g>
			</g>
			<g>
				<g>
					<rect x="97.6" y="524.4" class="st6" width="9.8" height="69.1"/>
					<polygon class="st6" points="68,607.7 63.7,607.7 97.6,593.5 103.6,600.6 					"/>
					<polygon class="st6" points="135.4,607.7 141.4,607.7 107.4,593.5 101.4,600.6 					"/>
					<rect x="97.6" y="593.5" class="st6" width="9.8" height="6.1"/>
					<polygon class="st6" points="104.7,612.2 100.4,612.2 98.5,591.5 106.5,591.5 					"/>
					<rect x="63.7" y="607.7" class="st6" width="4.3" height="4.4"/>
					<rect x="137" y="607.7" class="st6" width="4.3" height="4.4"/>
					<g>
						<polygon class="st7" points="29.5,425.1 63.8,529.3 137,529.3 137,517.9 73.5,517.9 41.7,426.2 						"/>
						<polygon class="st8" points="67.2,524.4 34.3,425.5 29.5,425.1 63.8,529.3 137,529.3 137,524.4 						"/>
					</g>
					<rect x="89.6" y="529.2" class="st9" width="25.7" height="5.3"/>
					<circle class="st10" cx="65.8" cy="612.6" r="2.7"/>
					<circle class="st10" cx="102.5" cy="612.6" r="2.7"/>
					<circle class="st10" cx="139.2" cy="612.6" r="2.7"/>
				</g>
				<g>
					<path class="st3" d="M213.5,598.2l-33.6-101.4c-2.5-3.8-6.8-6.1-11.3-6.1c0,0-19.2-1.8-45.1-2.5c-10.4-0.3-19-4.6-19.9-5.4
						H70.1c0,0.3-1.9,35,40.9,35c17.6,0,40.5,0,50.2,0l35,83.4L213.5,598.2z"/>
					<path class="st10" d="M213.5,598.2c0,0,11.8,3.5,16.3,3.8c5.8,0.4,7.2,7.3,7.2,7.3h-39.5c0,0-1.9-4.1-1.3-8.2
						c7.5-1.2,16.3-2.9,16.3-2.9"/>
					<polyline class="st11" points="85.8,397.3 89.3,369.4 105.6,349.9 96.9,405.5 					"/>
					<g>
						<path class="st11" d="M125.4,361.5c0,0-2.6,35.7-17.9,35.7c-9.6,0-16.2-6.1-16.2-16.9l1.5-18.8"/>
						<path class="st12" d="M96.4,361.5c0,0,21.4,7.8,30.1,0c8.7-7.8-4-16.4-17.6-16.4c-13.6,0-17.5,6.2-17.5,6.2L96.4,361.5z"/>
						<path class="st12" d="M91.4,351.2c0,0-5.2,0.2-7.1,4.8c-1.8,4.6-0.6,23.8,3,28.4c0.6-4.8,4.9-13.9,8-16.6
							c3.2-2.7,5.2-2.3,7,2.9c-1-6.5-0.5-9.2-0.5-9.2L91.4,351.2z"/>
					</g>
					<path class="st12" d="M95.4,367.8c0,0-3.3,5.1,0.3,14.2c-5.4,1-8.4,2.4-8.4,2.4s-2.6-5,0-9.1C90,371.3,95.4,367.8,95.4,367.8z"
						/>
					<path class="st3" d="M70.1,482.7c0,0-4.8-46.8,0-69.9c4.8-23.1,32.4-22,36.4,0c3.9,22-6.2,37.2-5.6,46.2
						c0.6,9,2.7,23.7,2.7,23.7H70.1z"/>
					<path class="st3" d="M177.3,442.4c0,0-48.9-4-68.3-27.3c-15.7-18.7-28.5,0-12.6,12.7c16.5,13.1,43.7,22.7,80.7,21.6
						C177.1,447.8,177.3,442.4,177.3,442.4z"/>
					<path class="st13" d="M177.1,449.4c0,0,8.5,1,9.5-0.8c0.4-0.5-0.4-0.8-0.9-0.9c1.2-0.4,1.5-0.4,1.5-1c0-0.6-1.6-0.8-1.6-0.8
						s2.1-0.1,2-1.1c0-1-1.8-0.9-1.8-0.9s1.8,0,1.8-0.8c0-0.8-0.8-0.8-1.5-0.9c-0.7,0-4.8,0.7-4.8,0.7s2.3-1.1,3.5-1.3
						c1.3-0.2,1.4-1.7-1.2-1.3c-2.5,0.4-6.4,2.3-6.4,2.3L177.1,449.4z"/>
				</g>
			</g>
			<path class="st3" d="M68.9,420.5c0,0-3.6,57.8,4.3,96.5c16.5,0,39.2,0,39.2,0l-5-39.8c0,0-2.3-31.1,0-43.6
				c2.3-12.5-14.5-17-14.5-17"/>
			<path class="st2" d="M177.1,450.4c0,0,12,1.2,13.2-1c0.5-0.6-0.5-1-1.2-1.2c1.5-0.4,1.9-0.5,1.9-1.2c0-0.8-2-1-2-1
				s2.6-0.1,2.6-1.3c0-1.2-2.2-1.1-2.2-1.1s2.3,0,2.3-1.1c0-1-1-1.1-1.9-1.1c-0.9,0-6.1,0.8-6.1,0.8s2.9-1.3,4.5-1.6
				c1.6-0.3,1.7-2.1-1.5-1.6c-3.2,0.5-9.6,3.2-9.6,3.2V450.4z"/>
		</g>
		<g>
			<path class="st14" d="M254.9,337.9c0,10-5,10.2-4.6,16.8c0.4,7.3,5.6,7.3,5.6,12.3c0,5-4.8,10.7-0.5,16.1c18.7,0,20.5,0,20.5,0
				v-60.9L254.9,337.9z"/>
			<path class="st14" d="M296.8,337.9c0,10,5,10.2,4.6,16.8c-0.4,7.3-5.6,7.3-5.6,12.3c0,5,4.8,10.7,0.5,16.1c-18.7,0-20.5,0-20.5,0
				v-60.9L296.8,337.9z"/>
			<g>
				<g>
					<g>
						<g>
							<path class="st15" d="M269,569.3c0.6-7.9,0.6-16,1.1-24c1.2-21.9,2.7-38.8,6.9-58.7c1.2-5.8,1.9-11.8,2.8-17.6
								c-2.9-1-5.2-2.8-8-3.9c-3.2-1.3-7.2-0.6-10.5-0.5c-0.1,3.7,0.2,7.2,0.5,10.8c0.7,7.9-3,16.5-3.8,24.4
								c-2.1,20.7,3,55,1.4,85.6c2.9,0.3,5.7,0.6,8.5,0.9C268.4,580.5,268.6,574.2,269,569.3z"/>
						</g>
					</g>
					<path class="st16" d="M267.6,596.3c-1.2-4.3-1.8-8.6-1.5-13.5c-2.7,0-5.6,2.6-5.9,5.6c-0.9,7.9-2.9,14.6,0.4,20.5
						c0.3,0.5,0.6,0.9,0.9,1.4c2.1,3,9.3,8.5,11.8,4c3.3-5.9,0.4-10.8-1.8-16C269.7,598.5,268.3,598,267.6,596.3z"/>
					<path class="st17" d="M264.4,594.2c-1.7-3.8,0.2-7.3,0-11c-2,0.8-3.7,2.8-4,5.1c-0.9,7.6-2.8,14.1,0.4,19.8
						c0.3,0.5,0.5,0.9,0.9,1.4c2,2.9,8.9,8.2,11.4,3.8c3.2-5.7,0.4-10.3-1.7-15.3C268.5,598.3,265.9,597.7,264.4,594.2z"/>
					<path class="st3" d="M260.4,602.2c-2.7-4.3-0.9-10.8,0.1-16.8c0.8-4.8,4.8-2.9,6.5-0.4c1.7,2.5,2.1,5.8,3.1,8.7
						c1.5,4.2,3.8,7.8,0.9,12.3c-2.3,3.5-8.3-0.5-10-2.7C260.9,602.9,260.6,602.6,260.4,602.2z"/>
					<path class="st15" d="M268.7,586.2c0-0.1,0-0.2,0-0.3c-0.4-1.7-0.3-3.6-0.4-5.2c-2.6-3.3-8.6-1.5-8.6,1.9c0,15-2,12.9,0.8,17.5
						c0.2,0.4,0.5,0.7,0.8,1.1c4,6.7,11.1,6.7,10.9,0.9C271.9,597.9,268.7,591.4,268.7,586.2z"/>
				</g>
				<g>
					<g>
						<g>
							<path class="st15" d="M283.1,569.1c-0.7-7.9-1-16-1.6-24c-1.7-21.9-3.5-38.8-8.2-58.5c-1.4-5.7-2.1-11.8-3.2-17.5
								c2.9-1,5.2-2.9,7.9-4.1c3.2-1.3,7.1-0.8,10.5-0.8c0.2,3.7,0,7.2-0.3,10.8c-0.5,7.9,3.4,16.5,4.4,24.3
								c2.5,20.6-1.8,55,0.4,85.6c-2.9,0.3-5.7,0.8-8.5,1.1C283.9,580.3,283.6,574,283.1,569.1z"/>
						</g>
					</g>
					<path class="st16" d="M285,596.1c1.1-4.4,1.6-8.7,1.3-13.6c2.7,0,5.6,2.5,6,5.5c1.1,7.9,3.2,14.6,0,20.5
						c-0.3,0.5-0.5,1-0.9,1.4c-2,3-9.1,8.7-11.7,4.2c-3.5-5.8-0.6-10.7,1.5-16C283,598.3,284.4,597.7,285,596.1z"/>
					<path class="st17" d="M288.3,593.8c1.6-3.9-0.3-7.3-0.3-11c2,0.8,3.8,2.7,4.1,5c1,7.6,3.1,14.1,0,19.8
						c-0.2,0.5-0.5,0.9-0.8,1.4c-1.9,2.9-8.8,8.4-11.3,4.1c-3.3-5.6-0.6-10.3,1.4-15.3C284.2,598.1,286.8,597.4,288.3,593.8z"/>
					<path class="st3" d="M292.4,601.8c2.6-4.4,0.6-10.8-0.4-16.8c-0.9-4.7-4.9-2.8-6.5-0.3c-1.7,2.6-2,5.9-2.9,8.8
						c-1.4,4.2-3.7,7.9-0.7,12.3c2.3,3.4,8.2-0.7,9.9-2.9C291.9,602.5,292.1,602.2,292.4,601.8z"/>
					<path class="st15" d="M283.7,585.9c0-0.1,0-0.2,0-0.3c0.3-1.7,0.2-3.6,0.3-5.2c2.5-3.3,8.6-1.7,8.7,1.7
						c0.3,15,2.3,12.8-0.4,17.5c-0.2,0.4-0.5,0.7-0.7,1.1c-3.9,6.8-11,6.9-10.8,1.1C280.8,597.8,283.9,591.2,283.7,585.9z"/>
				</g>
				<path class="st18" d="M263.9,362.7c0,0-11,4.5-16.5,10c0,13.3,0,127.1,0,127.1h29.2v-103L263.9,362.7z"/>
				<path class="st3" d="M289.8,363.4c0,0,9.9,4.1,15.4,9.6c0,13.3,0,126.8,0,126.8H276V397.1L289.8,363.4z"/>
				<g>
					<polyline class="st19" points="266.4,362.4 276.7,397.8 285.5,362.3 					"/>
					<g>
						<polygon class="st11" points="282.4,363.1 275.9,365.1 269.8,363.1 269.8,352 282.4,352 						"/>
					</g>
					<path class="st20" d="M276.7,397.8l13.9-21.7l-4.2-2l6.7-1.9l2.8-5.6c0,0-4.6-3.5-10.4-4.2
						C283.9,368.6,276.7,397.8,276.7,397.8z"/>
					<path class="st20" d="M276.7,397.8l-13.9-21.7l4.2-2l-6.7-1.9l-3-6.2c0,0,4.5-2.8,10.4-4.2
						C269.2,367.9,276.7,397.8,276.7,397.8z"/>
				</g>
				<path class="st18" d="M247.4,372.7c0,0-25.6,37.5-25.9,44.7c-0.4,7.2,25.1,8.3,25.1,8.3l-1.6-10.8c0,0-10.9-1.5-6.5-6.7
					c3.7-4.4,15.8-20.4,15.8-20.4"/>
				<path class="st3" d="M305.1,373l27.6,60.8l-9.6,7.2l-12.5-2.9c0,0,7.6-2.3,2.6-9.7l-4-1.6l-19.1-36.5"/>
			</g>
			<g>
				<g>
					<circle class="st14" cx="275.9" cy="325.9" r="22"/>
					<g>
						<path class="st11" d="M275.9,312.1c-7.1,0-18.4,4.1-18.4,23.1c0,11,4.3,16.1,5.8,18.1c1.4,1.8,8.8,7.7,12.6,7.7
							C275.9,341.9,275.9,312.1,275.9,312.1z"/>
						<path class="st11" d="M254,339.7c-0.3-3,1.1-5.7,3.2-6c2.1-0.3,4.1,1.9,4.4,5c0.3,3-1.1,5.7-3.2,6
							C256.2,345,254.3,342.8,254,339.7z"/>
					</g>
					<g>
						<g>
							<g>
								<path class="st11" d="M275.9,312.1c7.1,0,18.4,4.1,18.4,23.1c0,11-4.3,16.1-5.8,18.1c-1.4,1.8-8.8,7.7-12.6,7.7
									C275.9,341.9,275.9,312.1,275.9,312.1z"/>
							</g>
							<g>
								<path class="st11" d="M297.9,339.7c0.3-3-1.1-5.7-3.2-6c-2.1-0.3-4.1,1.9-4.4,5c-0.3,3,1.1,5.7,3.2,6
									C295.6,345,297.6,342.8,297.9,339.7z"/>
							</g>
						</g>
					</g>
				</g>
				<path class="st14" d="M274.9,306.7c-13,0-17,11.4-17,16.7c-4.7,6.6,0.4,12.5,4.1,14.5c0-1.2,0-1.7,0-3.2c0-4.2,4-8.2,10.1-7.5
					c5.4,0.6,8.9-2.5,11.8-7.7C287.4,312.4,283,306.7,274.9,306.7z"/>
				<path class="st14" d="M283.3,317.2c0,0,3,12.4,11.4,16.5c1.5-11.1,2.4-8.8,0-14.6c-2.4-5.9-11.4-10.2-11.4-10.2V317.2z"/>
			</g>
			<polyline class="st21" points="248.1,499.8 248.1,511 305,511 305,499.8 			"/>
			<g>
				<path class="st22" d="M308,416.1h-0.2h-8.3h-0.2v0c-0.5,0.1-0.8,0.5-0.8,1c0,0.5,0.3,0.9,0.8,1v28.6l0,1.1l0.1,0.5
					c0.5,1.8,2.1,2.7,4.1,2.7c2,0,3.7-0.9,4.1-2.7l0.1-0.5v-29.6h0.2c0.6,0,1.1-0.5,1.1-1.1C309.1,416.5,308.6,416.1,308,416.1z"/>
				<path class="st23" d="M308,416.1h-0.2h-4.1V451c1.9-0.1,4.1-0.8,4.1-3.2c0-1.4,0-29.6,0-29.6h0.2c0.6,0,1.1-0.5,1.1-1.1
					C309.1,416.5,308.6,416.1,308,416.1z"/>
				<path class="st19" d="M306.3,446.4c0,1.4-1.1,2.5-2.5,2.5c-1.4,0-2.5-1.1-2.5-2.5l0-1.2v-20.9h5V446.4z"/>
			</g>
			<path class="st2" d="M311.4,438.2c0,0-13.6-2.8-13.6-5.8c0.2-1,1.8-0.9,2.5-0.7c-1.2-1-1.9-2.3-1.6-3c0.3-0.7,2.8,0.1,2.8,0.1
				s-2.5-1.3-2-2.4c0.5-1.1,2.6-0.1,2.6-0.1s-2.2-1-1.8-2c0.5-0.9,1.4-0.6,2.3-0.2c0.9,0.4,5.6,3.4,5.6,3.4s-2.2-2.5-3.7-3.4
				c-1.4-1-0.8-2.7,2.1-0.9c2.9,1.9,7.5,5.6,7.5,5.6s2,2.5,0.5,5.7C313.3,437.9,311.4,438.2,311.4,438.2z"/>
			<g>
				
					<rect x="236.6" y="408.2" transform="matrix(0.7071 -0.7071 0.7071 0.7071 -219.2386 289.4998)" class="st24" width="6.4" height="2.4"/>
				
					<rect x="247.4" y="406.5" transform="matrix(0.7071 -0.7072 0.7072 0.7071 -223.0074 299.1063)" class="st25" width="4.3" height="24.4"/>
				<polyline class="st26" points="256.6,428.9 265.5,434.7 259.7,425.9 				"/>
				<polygon class="st27" points="265.5,434.7 259.7,425.9 242.4,408.6 243,408 241.3,406.3 239.2,408.4 				"/>
			</g>
			<path class="st2" d="M246.2,424.2c0,0,9.6,0.5,10.5-1.6c0.4-0.6-1.8-0.7-2.4-0.8c1.3,0.1,3.1-0.2,2.8-1.3
				c-0.2-0.8-2.8-0.9-2.8-0.9s3.1-0.4,2.9-1.5c-0.2-1.1-2.7-0.9-2.7-0.9s2.5-0.4,2.3-1.4c-0.4-1.8-5.7,0-5.7,0s1.2-0.8,2.6-1.2
				c1.4-0.4,1.4-2.1-1.5-1.3c-2.9,0.8-7.2,3.4-7.2,3.4L246.2,424.2z"/>
		</g>
		<g>
			<path class="st2" d="M355.3,414c0,0-11.2-0.5-12.1-2.6c-0.3-0.6,0.6-0.9,1.3-0.9c-1.3-0.6-1.7-0.7-1.6-1.4c0.1-0.7,2-0.7,2-0.7
				s-2.4-0.5-2.2-1.6c0.2-1.1,2.2-0.7,2.2-0.7s-2.1-0.3-2-1.3c0.2-1,1-0.9,1.9-0.8c0.9,0.1,5.5,1.6,5.5,1.6s-2.5-1.6-3.9-2.1
				c-1.4-0.5-1.3-2.2,1.6-1.3c2.9,0.9,8.8,4.3,8.8,4.3L355.3,414z"/>
			<g>
				<path class="st10" d="M399.7,604.2c0,0-8.4,3.5-11.5,3.8c-4.1,0.4-5.1,7.3-5.1,7.3h29c0,0,0.4-5-0.1-9.2
					c-5.3-1.2-11.5-1.9-11.5-1.9"/>
				<path class="st21" d="M388.7,488.6l4.8,118.1c0,0,10.6,3.8,18.5,0c0-41.9,0-118.1,0-118.1"/>
				<path class="st10" d="M428.5,604.2c0,0,8.4,3.5,11.5,3.8c4.1,0.4,5.1,7.3,5.1,7.3h-29c0,0-0.4-5,0.1-9.2
					c5.3-1.2,11.5-1.9,11.5-1.9"/>
				<path class="st21" d="M439.5,488.6l-4.8,118.1c0,0-10.6,3.8-18.5,0c0-41.9,0-118.1,0-118.1"/>
				<path class="st18" d="M403.9,360.5c0,0-11.1,4.6-16.7,10.1c0,13.4,0,128.1,0,128.1h29.5V394.9L403.9,360.5z"/>
				<path class="st3" d="M430,361.2c0,0,10,4.1,15.6,9.6c0-4.9,0-3.6,0,127.9h-29.5V395.2L430,361.2z"/>
				<g>
					<polyline class="st28" points="406.4,360.2 416.8,395.9 425.7,360.1 					"/>
					<polygon class="st29" points="418,369.5 420.5,366.9 416,362.9 413,366.9 415.5,369.5 412.4,387.7 416.8,395.9 421.3,388.2 
											"/>
					<g>
						<polygon class="st11" points="422.6,360.9 416,362.9 409.8,360.9 409.8,349.7 422.6,349.7 						"/>
					</g>
					<path class="st20" d="M416.8,395.9l14-21.9l-4.2-2l6.7-1.9l2.9-5.6c0,0-4.6-3.5-10.5-4.2C424.1,366.5,416.8,395.9,416.8,395.9z
						"/>
					<path class="st20" d="M416.8,395.9l-14-21.9l4.2-2l-6.7-1.9l-3-6.3c0,0,4.5-2.8,10.5-4.2C409.3,365.8,416.8,395.9,416.8,395.9z
						"/>
					<path class="st28" d="M409.6,359.2l6.4,3.5l6.7-3.5l6.6,1.4l-5.6,9.6L416,363l-6.4,7l-6.6-9.2
						C403,360.8,407.2,359.2,409.6,359.2z"/>
					<g>
						<path class="st11" d="M434.4,328.3c0-15-8.3-23.5-18.5-23.5c-10.2,0-18.5,8.5-18.5,23.5c0,6.3,1.9,20.2,5.2,23
							c2.3,2,9.6,5.4,13.2,5.4l0,0c0,0,0,0,0,0c0,0,0,0,0,0h0c3.6,0,11-3.4,13.2-5.4C432.6,347.7,434.4,334.1,434.4,328.3z"/>
						<path class="st11" d="M431.6,338.7c-3.3-0.4-5.6-4-5-8c0.6-4.1,3.7-7.1,7.1-6.8c3.3,0.3,5.6,4,5,8
							C438.1,336,435,339,431.6,338.7z"/>
						<path class="st11" d="M393.4,331.9c-0.6-4.1,1.7-7.7,5-8c3.3-0.3,6.5,2.7,7.1,6.8c0.6,4.1-1.7,7.7-5,8
							C397.1,339,393.9,336,393.4,331.9z"/>
					</g>
					<g>
						<path class="st30" d="M406,308.8c0,0-6.3,6.7-3.9,13c0.4,7.5-0.4,10-3.1,12c0.7-7.2-0.1-9.6-3.1-8.8
							C394.7,319.4,397.3,304.1,406,308.8z"/>
						<path class="st30" d="M425.3,308.8c0,0,6.3,6.7,3.9,13c-0.4,7.5,0.4,10,3.1,12c-0.7-7.2,0.1-9.6,3.1-8.8
							C436.6,319.4,434,304.1,425.3,308.8z"/>
						<path class="st30" d="M433.5,311.7c-3-10.9-24-18.1-34.4-1.9c-0.8,3.4,3.3,4.5,3.3,4.5s2.4-5,13.2-2.7
							c5.4-1.1,10.7-1.9,13.1,2.6C431.3,318.8,433.5,311.7,433.5,311.7z"/>
					</g>
				</g>
				<path class="st18" d="M387.2,370.6l-11.8,32l-19.7-0.1l-2.4,12.6c0,0,24.8,3.2,28.6,0.8c3.8-2.4,13.5-27.9,13.5-27.9"/>
				<path class="st3" d="M445.5,370.9l24.4,44.4l-9.7,7.2l-12.6-2.9c0,0,7.6-2.4,2.6-9.8l-4.1-1.6l-15.8-19.8"/>
			</g>
			<g>
				<g>
					<g>
						<g>
							<path class="st22" d="M349.6,451.3c-7.1,0-12.8-5.7-12.8-12.8c0-5.7,3.7-10.7,9.1-12.3v-20.5h-0.6v-3.9h8.5v3.9h-0.6v20.5
								c5.4,1.6,9.1,6.6,9.1,12.3C362.4,445.6,356.7,451.3,349.6,451.3z"/>
						</g>
					</g>
					<path class="st23" d="M353.3,426.3v-20.5h0.6v-3.9h-4.3v49.5c7.1,0,12.8-5.7,12.8-12.8C362.4,432.8,358.7,427.9,353.3,426.3z"
						/>
					<path class="st19" d="M339.4,438.5c0,5.6,4.6,10.2,10.2,10.2c5.6,0,10.2-4.6,10.2-10.2H339.4z"/>
					<g>
						<circle class="st19" cx="349.6" cy="430.2" r="1.4"/>
						<circle class="st19" cx="351.6" cy="432.5" r="1.1"/>
						<circle class="st19" cx="349.8" cy="406.2" r="1.1"/>
						<circle class="st19" cx="350.3" cy="435.6" r="0.7"/>
						<circle class="st19" cx="349.4" cy="415.7" r="0.7"/>
					</g>
					<g>
						<g>
							<circle class="st3" cx="349.2" cy="443.8" r="1.1"/>
							<circle class="st3" cx="350.4" cy="440.7" r="0.7"/>
						</g>
					</g>
				</g>
				<circle class="st19" cx="340.6" cy="438.5" r="1.2"/>
				<circle class="st19" cx="345.1" cy="438.5" r="1.2"/>
				<circle class="st19" cx="343.9" cy="437.4" r="1.2"/>
				<circle class="st19" cx="348.1" cy="438.5" r="1.2"/>
				<circle class="st19" cx="350.5" cy="438.5" r="1.2"/>
				<circle class="st19" cx="352.9" cy="437.6" r="1.5"/>
				<circle class="st19" cx="355.1" cy="438.5" r="1.5"/>
				<circle class="st19" cx="357.5" cy="438.5" r="1.5"/>
				<circle class="st19" cx="358.4" cy="438.5" r="1.5"/>
			</g>
			<g>
				<g>
					<path class="st22" d="M455,451c2.4-2.5,3.8-5.9,3.8-9.7c0-6.4-4.1-11.9-10.2-13.7v-19.5h0.7v-4.3h-9.5v4.3h0.7v19.5
						c-6,1.8-10.2,7.3-10.2,13.7c0,3.7,1.5,7.1,3.8,9.7H455z"/>
					<path class="st23" d="M455,451c2.4-2.5,3.8-5.9,3.8-9.7c0-6.4-4.1-11.9-10.2-13.7v-19.5h0.7v-4.3h-4.8V451H455z"/>
				</g>
				<g>
					<g>
						<path class="st31" d="M453.8,447.9c1.3-1.9,2.1-4.1,2.1-6.6c0-6.3-5.1-11.4-11.4-11.4c-6.3,0-11.4,5.1-11.4,11.4
							c0,2.5,0.8,4.7,2.1,6.6H453.8z"/>
					</g>
				</g>
			</g>
			<path class="st2" d="M453.5,420.4c0,0-13.7-2.8-13.7-5.8c0.2-1,1.8-0.9,2.5-0.7c-1.3-1.1-2-2.3-1.7-3c0.3-0.7,2.9,0.1,2.9,0.1
				s-2.5-1.3-2-2.4c0.5-1.1,2.6-0.1,2.6-0.1s-2.3-1-1.8-2c0.5-1,1.4-0.6,2.3-0.2c0.9,0.4,5.6,3.5,5.6,3.5s-2.3-2.5-3.7-3.5
				c-1.5-1-0.8-2.7,2.1-0.9c2.9,1.9,7.6,5.7,7.6,5.7s2.1,2.5,0.5,5.7C455.3,420,453.5,420.4,453.5,420.4z"/>
		</g>
		<g>
			<rect x="644.4" y="408.2" class="st21" width="16.2" height="111.3"/>
			<rect x="644.4" y="408.2" class="st32" width="8.1" height="111.3"/>
			<polygon class="st20" points="594.5,269.6 594.5,391 694.3,385.9 694.3,289 			"/>
			<polygon class="st33" points="602.3,279.1 602.3,381.4 686.5,377.2 686.5,295.4 			"/>
			<polygon class="st34" points="596.4,389.2 596.4,269.9 594.5,269.6 594.5,391 694.3,385.9 694.3,384.3 			"/>
			<polyline class="st21" points="726.7,412.6 626.8,417.6 594.5,391 694.3,385.9 			"/>
			<polyline class="st33" points="706.7,409.3 637,412.9 614.5,394.2 684.1,390.7 			"/>
			<g>
				<g>
					<g>
						<path class="st35" d="M628.4,344.4c1,0.9,0.7,3.3,0.7,4.7c0,2.7,4.1,2.7,4.1,0c0-2.5,0.2-5.8-1.9-7.6
							C629.3,339.8,626.3,342.7,628.4,344.4L628.4,344.4z"/>
					</g>
					<g>
						<path class="st35" d="M645.9,360.5c0-1.6-1.2-2.7-2.4-3.5c-0.5-0.4-1.1-0.7-1.7-1c-0.3-0.2-0.6-0.3-0.9-0.5
							c0.4,0.3-0.5-0.6-0.1,0c-0.6-0.9-1.8-1.3-2.8-0.7c-0.9,0.5-1.4,1.9-0.7,2.8c0.7,1,1.7,1.7,2.8,2.3c0.5,0.3,1,0.6,1.5,0.9
							c0.2,0.1,0.2,0.2,0.1,0c0.1,0.1,0.2,0.2,0.3,0.2c0.2,0.2,0.2,0.2,0,0c0.2,0.3-0.1-0.3-0.1-0.4
							C641.9,363.2,646,363.2,645.9,360.5L645.9,360.5z"/>
					</g>
					<g>
						<path class="st35" d="M637.4,368.6c-0.6,1.8-1.3,3.5-1.8,5.2c-0.8,2.6,3.2,3.6,4,1.1c0.5-1.8,1.2-3.5,1.8-5.2
							C642.2,367.2,638.2,366.1,637.4,368.6L637.4,368.6z"/>
					</g>
					<g>
						<path class="st35" d="M631.3,372c-1.7-1.4-3.6-2.3-5.8-2.4c-2.7-0.1-2.7,4.1,0,4.1c1.1,0,2,0.4,2.9,1.2c0.9,0.7,2.1,0.8,2.9,0
							C632,374.1,632.1,372.7,631.3,372L631.3,372z"/>
					</g>
					<g>
						<path class="st35" d="M617.3,369.5c-0.4-2.7-3.7-3.7-5.7-4.8c-2.3-1.3-4.4,2.3-2.1,3.6c0.8,0.4,1.7,0.8,2.5,1.3
							c0.2,0.1,0.4,0.2,0.6,0.4c0,0,0.6,0.4,0.3,0.2c0.2,0.1,0.3,0.3,0.4,0.4c-0.1-0.2-0.1-0.2,0,0c-0.1-0.2-0.1-0.2-0.1,0
							c0.2,1.1,1.5,1.7,2.5,1.4C617,371.7,617.5,370.6,617.3,369.5L617.3,369.5z"/>
					</g>
					<g>
						<path class="st35" d="M624.7,366.1c0.2-1.2,0.4-2.3,1.2-3.2c0.7-0.9,0.8-2.1,0-2.9c-0.7-0.7-2.2-0.9-2.9,0
							c-1.2,1.5-1.9,3.1-2.2,5c-0.2,1.1,0.3,2.2,1.4,2.5C623.2,367.8,624.6,367.2,624.7,366.1L624.7,366.1z"/>
					</g>
					<g>
						<path class="st35" d="M628.5,351c-2.1-0.5-4.5-0.6-6.6,0c-2.6,0.7-1.5,4.7,1.1,4c1.4-0.4,3-0.3,4.4,0
							C630,355.5,631.1,351.6,628.5,351L628.5,351z"/>
					</g>
					<g>
						<path class="st35" d="M614.6,355.3c0.6-1.1,1.7-2.5,3-2.5c2.7-0.1,2.7-4.2,0-4.1c-2.9,0.1-5.2,2.1-6.6,4.6
							C609.7,355.5,613.3,357.6,614.6,355.3L614.6,355.3z"/>
					</g>
					<g>
						<path class="st35" d="M621.7,338.8c-0.8-0.7-1.7-1.2-2.8-1.6c-1.1-0.5-2.1-1.1-3.1-1.9c-0.9-0.7-2.1-0.9-2.9,0
							c-0.7,0.7-0.9,2.2,0,2.9c1,0.8,1.9,1.5,3,2.1c0.9,0.5,2,0.7,2.8,1.4c0.9,0.7,2.1,0.8,2.9,0C622.5,341,622.6,339.6,621.7,338.8
							L621.7,338.8z"/>
					</g>
				</g>
				<g>
					<path class="st35" d="M667.2,311.6c1.9-2.9,2.4-2.6,1.2,0.6c-1.3,3.2-0.3,3.9,2.2,1.4c2.5-2.4,2.9-2.1,1,0.8
						c-1.9,2.9-1.1,3.7,1.8,1.9c2.9-1.9,3.3-1.4,0.8,1c-2.5,2.4-1.9,3.4,1.4,2.2c3.2-1.2,3.5-0.7,0.6,1.2c-2.9,1.9-2.5,3,0.9,2.4
						c3.4-0.5,3.6,0.1,0.3,1.3c-3.3,1.2-3.1,2.4,0.4,2.6c3.5,0.2,3.5,0.8,0.1,1.3c-3.4,0.5-3.5,1.7-0.2,2.6c3.3,0.9,3.2,1.5-0.2,1.3
						c-3.5-0.2-3.8,0.9-0.7,2.5c3.1,1.6,2.9,2.2-0.5,1.2c-3.3-0.9-3.9,0.1-1.2,2.3c2.7,2.2,2.3,2.7-0.7,1.1c-3.1-1.6-3.8-0.7-1.7,2
						c2.2,2.7,1.7,3.1-0.9,0.9c-2.7-2.2-3.6-1.5-2,1.6c1.5,3.1,1,3.4-1.1,0.7c-2.1-2.7-3.2-2.2-2.3,1.2c0.9,3.4,0.3,3.6-1.2,0.5
						c-1.5-3.1-2.7-2.8-2.5,0.6c0.1,3.5-0.4,3.6-1.3,0.2c-0.9-3.4-2-3.3-2.6,0.1c-0.6,3.4-1.2,3.4-1.3-0.1c-0.1-3.5-1.3-3.7-2.6-0.4
						c-1.3,3.2-1.8,3.1-1.3-0.4c0.6-3.4-0.5-3.9-2.4-1c-1.9,2.9-2.4,2.6-1.2-0.6c1.3-3.2,0.3-3.9-2.2-1.4c-2.5,2.4-2.9,2.1-1-0.8
						c1.9-2.9,1.1-3.7-1.8-1.9c-2.9,1.9-3.3,1.4-0.8-1c2.5-2.4,1.9-3.4-1.4-2.2c-3.2,1.2-3.5,0.7-0.6-1.2c2.9-1.9,2.5-3-0.9-2.4
						c-3.4,0.5-3.6-0.1-0.3-1.3c3.3-1.2,3.1-2.4-0.4-2.6c-3.5-0.2-3.5-0.8-0.1-1.3c3.4-0.5,3.5-1.7,0.2-2.6
						c-3.3-0.9-3.2-1.5,0.2-1.3c3.5,0.2,3.8-0.9,0.7-2.5c-3.1-1.6-2.9-2.2,0.5-1.2c3.3,0.9,3.9-0.1,1.2-2.3
						c-2.7-2.2-2.3-2.7,0.7-1.1c3.1,1.6,3.8,0.7,1.7-2c-2.2-2.7-1.7-3.1,0.9-0.9c2.7,2.2,3.6,1.5,2-1.6c-1.5-3.1-1-3.4,1.1-0.7
						c2.2,2.7,3.2,2.2,2.3-1.2c-0.9-3.4-0.3-3.6,1.2-0.5c1.5,3.1,2.7,2.8,2.5-0.6c-0.1-3.5,0.4-3.6,1.3-0.2c0.9,3.4,2,3.3,2.6-0.1
						c0.6-3.4,1.2-3.4,1.3,0.1c0.1,3.5,1.3,3.7,2.6,0.4c1.3-3.2,1.8-3.1,1.3,0.4C664.2,314.1,665.3,314.5,667.2,311.6z"/>
					<g>
						<g>
							<path class="st36" d="M653.4,324.9c0,0.3,0.1,0.6,0.4,0.8c0.2,0.2,0.5,0.2,0.7,0c0.2-0.2,0.2-0.5,0-0.7c0,0-0.1-0.1-0.1,0
								c0,0,0,0,0-0.1c0,0,0,0.1,0,0c0-0.3-0.2-0.5-0.5-0.5C653.6,324.4,653.4,324.6,653.4,324.9L653.4,324.9z"/>
						</g>
					</g>
					<g>
						<g>
							<path class="st36" d="M654.8,327.7c0.1,0,0.2,0,0.2,0c0.7,0,0.7-1,0-1c-0.1,0-0.2,0-0.2,0
								C654.1,326.7,654.1,327.7,654.8,327.7L654.8,327.7z"/>
						</g>
					</g>
					<g>
						<g>
							<path class="st36" d="M658,325.8c0,0,0-0.1,0-0.1c0-0.7-1-0.7-1,0c0,0,0,0.1,0,0.1C657,326.4,658,326.4,658,325.8L658,325.8z
								"/>
						</g>
					</g>
					<g>
						<g>
							<path class="st36" d="M658,329.1c0.7,0,0.7-1,0-1S657.4,329.1,658,329.1L658,329.1z"/>
						</g>
					</g>
					<g>
						<g>
							<path class="st36" d="M667.4,330.7c0.1,0,0.2,0,0.3-0.1c0,0,0.1-0.1,0.1-0.1c0.1-0.1-0.1,0.1,0,0c-0.1,0-0.2,0-0.3,0.1
								c0,0,0,0,0,0c0.3,0,0.5-0.2,0.5-0.5c0-0.2-0.2-0.5-0.5-0.5c-0.1,0-0.2,0-0.3,0.1c0,0-0.1,0.1-0.1,0.1c-0.1,0.1,0.1-0.1,0,0
								c0.1,0,0.2,0,0.3-0.1c0,0,0,0,0,0c-0.3,0-0.5,0.2-0.5,0.5C666.9,330.5,667.1,330.8,667.4,330.7L667.4,330.7z"/>
						</g>
					</g>
					<g>
						<g>
							<path class="st36" d="M664.7,325.3c0.7,0,0.7-1,0-1C664,324.2,664,325.3,664.7,325.3L664.7,325.3z"/>
						</g>
					</g>
					<g>
						<g>
							<path class="st36" d="M664.7,329.7c0.7,0,0.7-1,0-1C664,328.6,664,329.7,664.7,329.7L664.7,329.7z"/>
						</g>
					</g>
					<g>
						<g>
							<path class="st36" d="M663.5,330c0.7,0,0.7-1,0-1C662.8,329,662.8,330,663.5,330L663.5,330z"/>
						</g>
					</g>
					<g>
						<g>
							<path class="st36" d="M660.4,328.8c0.7,0,0.7-1,0-1S659.8,328.8,660.4,328.8L660.4,328.8z"/>
						</g>
					</g>
					<g>
						<g>
							<path class="st36" d="M658.4,322.1c0.7,0,0.7-1,0-1S657.7,322.1,658.4,322.1L658.4,322.1z"/>
						</g>
					</g>
					<g>
						<g>
							<path class="st36" d="M664.5,327.6c0.7,0,0.7-1,0-1C663.8,326.6,663.8,327.6,664.5,327.6L664.5,327.6z"/>
						</g>
					</g>
					<g>
						<g>
							<path class="st36" d="M660.6,323.8c0.7,0,0.7-1,0-1C660,322.8,660,323.8,660.6,323.8L660.6,323.8z"/>
						</g>
					</g>
					<g>
						<g>
							<path class="st36" d="M652.2,329.7c0.7,0,0.7-1,0-1C651.5,328.6,651.5,329.7,652.2,329.7L652.2,329.7z"/>
						</g>
					</g>
					<g>
						<g>
							<path class="st36" d="M657.9,331.5c0.7,0,0.7-1,0-1C657.2,330.4,657.2,331.5,657.9,331.5L657.9,331.5z"/>
						</g>
					</g>
					<g>
						<g>
							<path class="st36" d="M655,330.2c0.7,0,0.7-1,0-1C654.4,329.2,654.4,330.2,655,330.2L655,330.2z"/>
						</g>
					</g>
					<g>
						<g>
							<path class="st36" d="M659.5,333.7c0.1,0,0.3,0,0.4-0.1c0,0,0.1,0,0.1,0c0,0,0.2,0,0,0c0.3,0,0.5-0.2,0.5-0.5
								c0-0.3-0.2-0.5-0.5-0.5c-0.1,0-0.2,0-0.3,0.1c-0.1,0-0.2,0-0.2,0.1c-0.3,0-0.5,0.2-0.5,0.5
								C659,333.5,659.2,333.7,659.5,333.7L659.5,333.7z"/>
						</g>
					</g>
					<g>
						<g>
							<path class="st36" d="M664.1,332c0.7,0,0.7-1,0-1S663.5,332,664.1,332L664.1,332z"/>
						</g>
					</g>
					<g>
						<g>
							<path class="st36" d="M660.6,330.7c0.7,0,0.7-1,0-1C660,329.7,660,330.7,660.6,330.7L660.6,330.7z"/>
						</g>
					</g>
					<g>
						<g>
							<path class="st36" d="M666.2,333c-0.1,0-0.2,0-0.2,0c-0.7,0-0.7,1,0,1c0.1,0,0.2,0,0.2,0C666.8,334,666.8,333,666.2,333
								L666.2,333z"/>
						</g>
					</g>
					<g>
						<g>
							<path class="st36" d="M672.4,331.5c0.7,0,0.7-1,0-1C671.8,330.4,671.8,331.5,672.4,331.5L672.4,331.5z"/>
						</g>
					</g>
					<g>
						<g>
							<path class="st36" d="M656.7,323.5c0.7,0,0.7-1,0-1S656,323.5,656.7,323.5L656.7,323.5z"/>
						</g>
					</g>
					<g>
						<g>
							<path class="st36" d="M662,323c0.7,0,0.7-1,0-1C661.3,322,661.3,323,662,323L662,323z"/>
						</g>
					</g>
					<g>
						<g>
							<path class="st36" d="M663.3,324.8c0.7,0,0.7-1,0-1C662.7,323.8,662.7,324.8,663.3,324.8L663.3,324.8z"/>
						</g>
					</g>
					<g>
						<g>
							<path class="st36" d="M664.9,321.7c0.7,0,0.7-1,0-1C664.3,320.6,664.3,321.7,664.9,321.7L664.9,321.7z"/>
						</g>
					</g>
					<g>
						<g>
							<path class="st36" d="M657.6,334.3c0.7,0,0.7-1,0-1C656.9,333.3,656.9,334.3,657.6,334.3L657.6,334.3z"/>
						</g>
					</g>
					<g>
						<g>
							<path class="st36" d="M654,334.3c0.7,0,0.7-1,0-1C653.3,333.3,653.3,334.3,654,334.3L654,334.3z"/>
						</g>
					</g>
					<g>
						<g>
							<path class="st36" d="M655.1,332.9c0.7,0,0.7-1,0-1C654.4,331.9,654.4,332.9,655.1,332.9L655.1,332.9z"/>
						</g>
					</g>
					<g>
						<g>
							<path class="st36" d="M652.9,327.6c0.7,0,0.7-1,0-1C652.2,326.6,652.2,327.6,652.9,327.6L652.9,327.6z"/>
						</g>
					</g>
					<g>
						<g>
							<path class="st36" d="M649.7,330c0.7,0,0.7-1,0-1C649.1,329,649.1,330,649.7,330L649.7,330z"/>
						</g>
					</g>
					<g>
						<g>
							<path class="st36" d="M646,328.3c0.7,0,0.7-1,0-1C645.4,327.3,645.4,328.3,646,328.3L646,328.3z"/>
						</g>
					</g>
					<g>
						<g>
							<path class="st36" d="M652.9,332.5c0.7,0,0.7-1,0-1C652.2,331.5,652.2,332.5,652.9,332.5L652.9,332.5z"/>
						</g>
					</g>
					<g>
						<g>
							<path class="st36" d="M650,327.7c0.7,0,0.7-1,0-1S649.3,327.7,650,327.7L650,327.7z"/>
						</g>
					</g>
					<g>
						<g>
							<path class="st36" d="M648.4,323.6c0.7,0,0.7-1,0-1C647.8,322.6,647.8,323.6,648.4,323.6L648.4,323.6z"/>
						</g>
					</g>
					<g>
						<g>
							<path class="st36" d="M650.3,325.3c0.7,0,0.7-1,0-1C649.7,324.2,649.7,325.3,650.3,325.3L650.3,325.3z"/>
						</g>
					</g>
					<g>
						<g>
							<path class="st36" d="M668.2,323.2c0,0.3,0.1,0.6,0.4,0.8c0.2,0.2,0.5,0.2,0.7,0c0.2-0.2,0.2-0.5,0-0.7c0,0-0.1-0.1-0.1,0
								c0,0,0,0,0-0.1c0,0,0,0.1,0,0c0-0.3-0.2-0.5-0.5-0.5C668.4,322.7,668.2,323,668.2,323.2L668.2,323.2z"/>
						</g>
					</g>
					<g>
						<g>
							<path class="st36" d="M652.2,316.2c0.1,0,0.2,0,0.2,0c0.7,0,0.7-1,0-1c-0.1,0-0.2,0-0.2,0
								C651.6,315.2,651.6,316.2,652.2,316.2L652.2,316.2z"/>
						</g>
					</g>
					<g>
						<g>
							<path class="st36" d="M655.5,314.3c0,0,0-0.1,0-0.1c0-0.7-1-0.7-1,0c0,0,0,0.1,0,0.1C654.4,314.9,655.5,314.9,655.5,314.3
								L655.5,314.3z"/>
						</g>
					</g>
					<g>
						<g>
							<path class="st36" d="M655.5,317.6c0.7,0,0.7-1,0-1C654.9,316.6,654.9,317.6,655.5,317.6L655.5,317.6z"/>
						</g>
					</g>
					<g>
						<g>
							<path class="st36" d="M658.7,315.3c0.1,0,0.2,0,0.3-0.1c0,0,0.1-0.1,0.1-0.1c0.1-0.1-0.1,0.1,0,0c-0.1,0-0.2,0-0.3,0.1
								c0,0,0,0,0,0c0.3,0,0.5-0.2,0.5-0.5c0-0.2-0.2-0.5-0.5-0.5c-0.1,0-0.2,0-0.3,0.1c0,0-0.1,0.1-0.1,0.1c-0.1,0.1,0.1-0.1,0,0
								c0.1,0,0.2,0,0.3-0.1c0,0,0,0,0,0c-0.3,0-0.5,0.2-0.5,0.5C658.2,315.1,658.4,315.4,658.7,315.3L658.7,315.3z"/>
						</g>
					</g>
					<g>
						<g>
							<path class="st36" d="M673.3,323.6c0.7,0,0.7-1,0-1C672.6,322.6,672.6,323.6,673.3,323.6L673.3,323.6z"/>
						</g>
					</g>
					<g>
						<g>
							<path class="st36" d="M662.2,318.2c0.7,0,0.7-1,0-1C661.5,317.1,661.5,318.2,662.2,318.2L662.2,318.2z"/>
						</g>
					</g>
					<g>
						<g>
							<path class="st36" d="M660.9,318.5c0.7,0,0.7-1,0-1S660.3,318.5,660.9,318.5L660.9,318.5z"/>
						</g>
					</g>
					<g>
						<g>
							<path class="st36" d="M657.9,317.3c0.7,0,0.7-1,0-1C657.2,316.2,657.2,317.3,657.9,317.3L657.9,317.3z"/>
						</g>
					</g>
					<g>
						<g>
							<path class="st36" d="M666.9,320.5c0.7,0,0.7-1,0-1C666.3,319.5,666.3,320.5,666.9,320.5L666.9,320.5z"/>
						</g>
					</g>
					<g>
						<g>
							<path class="st36" d="M661.9,316.1c0.7,0,0.7-1,0-1C661.3,315.1,661.3,316.1,661.9,316.1L661.9,316.1z"/>
						</g>
					</g>
					<g>
						<g>
							<path class="st36" d="M669.2,322.2c0.7,0,0.7-1,0-1C668.5,321.1,668.5,322.2,669.2,322.2L669.2,322.2z"/>
						</g>
					</g>
					<g>
						<g>
							<path class="st36" d="M650,319c0.7,0,0.7-1,0-1S649.3,319,650,319L650,319z"/>
						</g>
					</g>
					<g>
						<g>
							<path class="st36" d="M654.3,319.2c0.7,0,0.7-1,0-1C653.6,318.2,653.6,319.2,654.3,319.2L654.3,319.2z"/>
						</g>
					</g>
					<g>
						<g>
							<path class="st36" d="M652.5,318.7c0.7,0,0.7-1,0-1C651.8,317.7,651.8,318.7,652.5,318.7L652.5,318.7z"/>
						</g>
					</g>
					<g>
						<g>
							<path class="st36" d="M645.3,325.9c0.1,0,0.3,0,0.4-0.1c0,0,0.1,0,0.1,0c0,0,0.2,0,0,0c0.3,0,0.5-0.2,0.5-0.5
								c0-0.3-0.2-0.5-0.5-0.5c-0.1,0-0.2,0-0.3,0.1c-0.1,0-0.2,0.1-0.2,0.1c-0.3,0-0.5,0.2-0.5,0.5
								C644.8,325.6,645,325.9,645.3,325.9L645.3,325.9z"/>
						</g>
					</g>
					<g>
						<g>
							<path class="st36" d="M661.6,320.5c0.7,0,0.7-1,0-1C660.9,319.5,660.9,320.5,661.6,320.5L661.6,320.5z"/>
						</g>
					</g>
					<g>
						<g>
							<path class="st36" d="M658.1,319.2c0.7,0,0.7-1,0-1C657.4,318.2,657.4,319.2,658.1,319.2L658.1,319.2z"/>
						</g>
					</g>
					<g>
						<g>
							<path class="st36" d="M663.6,321.5c-0.1,0-0.2,0-0.2,0c-0.7,0-0.7,1,0,1c0.1,0,0.2,0,0.2,0
								C664.3,322.6,664.3,321.5,663.6,321.5L663.6,321.5z"/>
						</g>
					</g>
					<g>
						<g>
							<path class="st36" d="M660.4,323c0.7,0,0.7-1,0-1S659.7,323,660.4,323L660.4,323z"/>
						</g>
					</g>
					<g>
						<g>
							<path class="st36" d="M665.3,321.8c0.7,0,0.7-1,0-1S664.6,321.8,665.3,321.8L665.3,321.8z"/>
						</g>
					</g>
					<g>
						<g>
							<path class="st36" d="M670.6,321.4c0.7,0,0.7-1,0-1C669.9,320.4,669.9,321.4,670.6,321.4L670.6,321.4z"/>
						</g>
					</g>
					<g>
						<g>
							<path class="st36" d="M671.9,323.2c0.7,0,0.7-1,0-1C671.3,322.2,671.3,323.2,671.9,323.2L671.9,323.2z"/>
						</g>
					</g>
					<g>
						<g>
							<path class="st36" d="M667.2,316.7c0.7,0,0.7-1,0-1C666.6,315.7,666.6,316.7,667.2,316.7L667.2,316.7z"/>
						</g>
					</g>
					<g>
						<g>
							<path class="st36" d="M655.1,321.1c0.7,0,0.7-1,0-1C654.4,320.1,654.4,321.1,655.1,321.1L655.1,321.1z"/>
						</g>
					</g>
					<g>
						<g>
							<path class="st36" d="M652.2,324.2c0.7,0,0.7-1,0-1C651.6,323.2,651.6,324.2,652.2,324.2L652.2,324.2z"/>
						</g>
					</g>
					<g>
						<g>
							<path class="st36" d="M652.4,321.1c0.7,0,0.7-1,0-1C651.7,320.1,651.7,321.1,652.4,321.1L652.4,321.1z"/>
						</g>
					</g>
					<g>
						<g>
							<path class="st36" d="M650.3,316.1c0.7,0,0.7-1,0-1C649.7,315.1,649.7,316.1,650.3,316.1L650.3,316.1z"/>
						</g>
					</g>
					<g>
						<g>
							<path class="st36" d="M648.8,318.7c0.7,0,0.7-1,0-1C648.1,317.7,648.1,318.7,648.8,318.7L648.8,318.7z"/>
						</g>
					</g>
					<g>
						<g>
							<path class="st36" d="M646.8,322.8c0.7,0,0.7-1,0-1C646.2,321.8,646.2,322.8,646.8,322.8L646.8,322.8z"/>
						</g>
					</g>
					<g>
						<g>
							<path class="st36" d="M650.3,321c0.7,0,0.7-1,0-1C649.7,320,649.7,321,650.3,321L650.3,321z"/>
						</g>
					</g>
					<g>
						<g>
							<path class="st36" d="M644.3,322.8c0.7,0,0.7-1,0-1C643.6,321.8,643.6,322.8,644.3,322.8L644.3,322.8z"/>
						</g>
					</g>
					<g>
						<g>
							<path class="st36" d="M665.9,319c0.7,0,0.7-1,0-1C665.3,317.9,665.3,319,665.9,319L665.9,319z"/>
						</g>
					</g>
					<g>
						<g>
							<path class="st36" d="M647.6,334.7c0.7,0,0.7-1,0-1C646.9,333.7,646.9,334.7,647.6,334.7L647.6,334.7z"/>
						</g>
					</g>
					<g>
						<g>
							<path class="st36" d="M657.1,337.5c0,0.3,0.1,0.6,0.4,0.8c0.2,0.2,0.5,0.2,0.7,0c0.2-0.2,0.2-0.5,0-0.7c0,0-0.1-0.1-0.1,0
								c0,0,0,0,0-0.1c0,0,0,0.1,0,0c0-0.3-0.2-0.5-0.5-0.5C657.4,337,657.1,337.2,657.1,337.5L657.1,337.5z"/>
						</g>
					</g>
					<g>
						<g>
							<path class="st36" d="M658.6,340.4c0.1,0,0.2,0,0.2,0c0.7,0,0.7-1,0-1c-0.1,0-0.2,0-0.2,0
								C657.9,339.3,657.9,340.4,658.6,340.4L658.6,340.4z"/>
						</g>
					</g>
					<g>
						<g>
							<path class="st36" d="M661.8,338.4c0,0,0-0.1,0-0.1c0-0.7-1-0.7-1,0c0,0,0,0.1,0,0.1C660.8,339,661.8,339,661.8,338.4
								L661.8,338.4z"/>
						</g>
					</g>
					<g>
						<g>
							<path class="st36" d="M661.8,341.7c0.7,0,0.7-1,0-1C661.2,340.7,661.2,341.7,661.8,341.7L661.8,341.7z"/>
						</g>
					</g>
					<g>
						<g>
							<path class="st36" d="M665,339.5c0.1,0,0.2,0,0.3-0.1c0,0,0.1-0.1,0.1-0.1c0.1-0.1-0.1,0.1,0,0c-0.1,0-0.2,0-0.3,0.1
								c0,0,0,0,0,0c0.3,0,0.5-0.2,0.5-0.5c0-0.2-0.2-0.5-0.5-0.5c-0.1,0-0.2,0-0.3,0.1c0,0-0.1,0.1-0.1,0.1c-0.1,0.1,0.1-0.1,0,0
								c0.1,0,0.2,0,0.3-0.1c0,0,0,0,0,0c-0.3,0-0.5,0.2-0.5,0.5C664.5,339.2,664.7,339.5,665,339.5L665,339.5z"/>
						</g>
					</g>
					<g>
						<g>
							<path class="st36" d="M668.5,337.9c0.7,0,0.7-1,0-1C667.8,336.9,667.8,337.9,668.5,337.9L668.5,337.9z"/>
						</g>
					</g>
					<g>
						<g>
							<path class="st36" d="M671.5,334.5c0.7,0,0.7-1,0-1C670.8,333.5,670.8,334.5,671.5,334.5L671.5,334.5z"/>
						</g>
					</g>
					<g>
						<g>
							<path class="st36" d="M667.2,342.6c0.7,0,0.7-1,0-1C666.6,341.6,666.6,342.6,667.2,342.6L667.2,342.6z"/>
						</g>
					</g>
					<g>
						<g>
							<path class="st36" d="M664.2,341.4c0.7,0,0.7-1,0-1S663.5,341.4,664.2,341.4L664.2,341.4z"/>
						</g>
					</g>
					<g>
						<g>
							<path class="st36" d="M662.2,334.7c0.7,0,0.7-1,0-1C661.5,333.7,661.5,334.7,662.2,334.7L662.2,334.7z"/>
						</g>
					</g>
					<g>
						<g>
							<path class="st36" d="M668.2,340.2c0.7,0,0.7-1,0-1C667.6,339.2,667.6,340.2,668.2,340.2L668.2,340.2z"/>
						</g>
					</g>
					<g>
						<g>
							<path class="st36" d="M664.4,336.4c0.7,0,0.7-1,0-1S663.8,336.4,664.4,336.4L664.4,336.4z"/>
						</g>
					</g>
					<g>
						<g>
							<path class="st36" d="M656.3,343.1c0.7,0,0.7-1,0-1S655.6,343.1,656.3,343.1L656.3,343.1z"/>
						</g>
					</g>
					<g>
						<g>
							<path class="st36" d="M660.6,343.3c0.7,0,0.7-1,0-1S659.9,343.3,660.6,343.3L660.6,343.3z"/>
						</g>
					</g>
					<g>
						<g>
							<path class="st36" d="M658.8,342.8c0.7,0,0.7-1,0-1S658.1,342.8,658.8,342.8L658.8,342.8z"/>
						</g>
					</g>
					<g>
						<g>
							<path class="st36" d="M670.3,326.6c0.1,0,0.3,0,0.4-0.1c0,0,0.1,0,0.1,0c0,0,0.2,0,0,0c0.3,0,0.5-0.2,0.5-0.5
								c0-0.3-0.2-0.5-0.5-0.5c-0.1,0-0.2,0-0.3,0.1c-0.1,0-0.2,0-0.2,0.1c-0.3,0-0.5,0.2-0.5,0.5
								C669.8,326.3,670,326.6,670.3,326.6L670.3,326.6z"/>
						</g>
					</g>
					<g>
						<g>
							<path class="st36" d="M644.8,330.7c0.7,0,0.7-1,0-1S644.2,330.7,644.8,330.7L644.8,330.7z"/>
						</g>
					</g>
					<g>
						<g>
							<path class="st36" d="M664.4,343.3c0.7,0,0.7-1,0-1S663.8,343.3,664.4,343.3L664.4,343.3z"/>
						</g>
					</g>
					<g>
						<g>
							<path class="st36" d="M673.6,327.1c-0.1,0-0.2,0-0.2,0c-0.7,0-0.7,1,0,1c0.1,0,0.2,0,0.2,0
								C674.2,328.1,674.2,327.1,673.6,327.1L673.6,327.1z"/>
						</g>
					</g>
					<g>
						<g>
							<path class="st36" d="M670.3,328.5c0.7,0,0.7-1,0-1C669.7,327.5,669.7,328.5,670.3,328.5L670.3,328.5z"/>
						</g>
					</g>
					<g>
						<g>
							<path class="st36" d="M660.5,336.1c0.7,0,0.7-1,0-1C659.8,335.1,659.8,336.1,660.5,336.1L660.5,336.1z"/>
						</g>
					</g>
					<g>
						<g>
							<path class="st36" d="M665.8,335.6c0.7,0,0.7-1,0-1C665.1,334.6,665.1,335.6,665.8,335.6L665.8,335.6z"/>
						</g>
					</g>
					<g>
						<g>
							<path class="st36" d="M667.1,337.4c0.7,0,0.7-1,0-1C666.5,336.4,666.5,337.4,667.1,337.4L667.1,337.4z"/>
						</g>
					</g>
					<g>
						<g>
							<path class="st36" d="M668.7,334.3c0.7,0,0.7-1,0-1C668,333.3,668,334.3,668.7,334.3L668.7,334.3z"/>
						</g>
					</g>
					<g>
						<g>
							<path class="st36" d="M665,326.6c0.7,0,0.7-1,0-1C664.4,325.6,664.4,326.6,665,326.6L665,326.6z"/>
						</g>
					</g>
					<g>
						<g>
							<path class="st36" d="M661.4,328.3c0.7,0,0.7-1,0-1S660.8,328.3,661.4,328.3L661.4,328.3z"/>
						</g>
					</g>
					<g>
						<g>
							<path class="st36" d="M662.3,326.6c0.7,0,0.7-1,0-1C661.7,325.6,661.7,326.6,662.3,326.6L662.3,326.6z"/>
						</g>
					</g>
					<g>
						<g>
							<path class="st36" d="M656.6,340.2c0.7,0,0.7-1,0-1C656,339.2,656,340.2,656.6,340.2L656.6,340.2z"/>
						</g>
					</g>
					<g>
						<g>
							<path class="st36" d="M655.1,342.8c0.7,0,0.7-1,0-1C654.4,341.8,654.4,342.8,655.1,342.8L655.1,342.8z"/>
						</g>
					</g>
					<g>
						<g>
							<path class="st36" d="M656.6,329c0.7,0,0.7-1,0-1C656,328,656,329,656.6,329L656.6,329z"/>
						</g>
					</g>
					<g>
						<g>
							<path class="st36" d="M660.3,326.5c0.7,0,0.7-1,0-1S659.6,326.5,660.3,326.5L660.3,326.5z"/>
						</g>
					</g>
					<g>
						<g>
							<path class="st36" d="M652.5,340.1c0.7,0,0.7-1,0-1C651.8,339.1,651.8,340.1,652.5,340.1L652.5,340.1z"/>
						</g>
					</g>
					<g>
						<g>
							<path class="st36" d="M656,336.8c0.7,0,0.7-1,0-1S655.3,336.8,656,336.8L656,336.8z"/>
						</g>
					</g>
					<g>
						<g>
							<path class="st36" d="M654.9,339.2c0.7,0,0.7-1,0-1C654.3,338.2,654.3,339.2,654.9,339.2L654.9,339.2z"/>
						</g>
					</g>
					<g>
						<g>
							<path class="st36" d="M650.2,333.2c0,0.3,0.1,0.6,0.4,0.8c0.2,0.2,0.5,0.2,0.7,0c0.2-0.2,0.2-0.5,0-0.7c0,0-0.1-0.1-0.1,0
								c0,0,0,0,0-0.1c0,0,0,0.1,0,0c0-0.3-0.2-0.5-0.5-0.5C650.5,332.7,650.2,332.9,650.2,333.2L650.2,333.2z"/>
						</g>
					</g>
					<g>
						<g>
							<path class="st36" d="M651.6,336.1c0.1,0,0.1,0,0.2,0c0.7,0,0.7-1,0-1c-0.1,0-0.2,0-0.2,0C651,335.1,651,336.1,651.6,336.1
								L651.6,336.1z"/>
						</g>
					</g>
					<g>
						<g>
							<path class="st36" d="M649.7,340.4c0.7,0,0.7-1,0-1C649.1,339.3,649.1,340.4,649.7,340.4L649.7,340.4z"/>
						</g>
					</g>
					<g>
						<g>
							<path class="st36" d="M651.9,338.6c0.7,0,0.7-1,0-1C651.2,337.5,651.2,338.6,651.9,338.6L651.9,338.6z"/>
						</g>
					</g>
					<g>
						<g>
							<path class="st36" d="M649.7,336c0.7,0,0.7-1,0-1C649.1,335,649.1,336,649.7,336L649.7,336z"/>
						</g>
					</g>
					<g>
						<g>
							<path class="st36" d="M648.1,338.6c0.7,0,0.7-1,0-1C647.5,337.5,647.5,338.6,648.1,338.6L648.1,338.6z"/>
						</g>
					</g>
					<g>
						<g>
							<path class="st36" d="M645.5,335.9c0.7,0,0.7-1,0-1C644.9,334.8,644.9,335.9,645.5,335.9L645.5,335.9z"/>
						</g>
					</g>
					<g>
						<g>
							<path class="st36" d="M649,332.5c0.7,0,0.7-1,0-1S648.4,332.5,649,332.5L649,332.5z"/>
						</g>
					</g>
					<g>
						<g>
							<path class="st36" d="M646.8,332c0.7,0,0.7-1,0-1C646.2,331,646.2,332,646.8,332L646.8,332z"/>
						</g>
					</g>
				</g>
			</g>
		</g>
		<g>
			<g>
				<rect x="105.1" y="213.2" class="st37" width="167.7" height="12"/>
				<g>
					<g>
						<path class="st38" d="M168.5,212v-11.9h-51.4c-3.3,0-5.9,2.7-5.9,5.9v2.2v0.1c0.5,2.8,3,4.9,5.9,4.9h51.4v-11.9"/>
						<path class="st39" d="M168.5,201.3h-50.7c-3,0-5.5,2.5-5.5,5.5c0,3,2.5,5.5,5.5,5.5h50.7V201.3z"/>
					</g>
					<g>
						<path class="st40" d="M168.5,198.9V187h-51.4c-3.3,0-5.9,2.7-5.9,5.9v2.2v0.1c0.5,2.8,3,4.9,5.9,4.9h51.4v-11.9"/>
						<path class="st39" d="M168.5,188.2h-50.7c-3,0-5.5,2.5-5.5,5.5c0,3,2.5,5.5,5.5,5.5h50.7V188.2z"/>
					</g>
					<g>
						<path class="st41" d="M168.5,186v-10.5h-45.6c-2.9,0-5.3,2.4-5.3,5.3v1.9v0.1c0.4,2.5,2.7,4.3,5.3,4.3h45.6v-10.5"/>
						<path class="st39" d="M168.5,176.5h-45c-2.7,0-4.9,2.2-4.9,4.9c0,2.7,2.2,4.9,4.9,4.9h45V176.5z"/>
					</g>
					<g>
						<path class="st38" d="M168.5,174.4v-10.5h-45.6c-2.9,0-5.3,2.4-5.3,5.3v1.9v0.1c0.4,2.5,2.7,4.3,5.3,4.3h45.6v-10.5"/>
						<path class="st39" d="M168.5,164.9h-45c-2.7,0-4.9,2.2-4.9,4.9c0,2.7,2.2,4.9,4.9,4.9h45V164.9z"/>
					</g>
				</g>
			</g>
			<g>
				<rect x="168.5" y="145.2" class="st42" width="20.2" height="68"/>
				<rect x="175.4" y="149.1" class="st43" width="5.2" height="29.7"/>
				<rect x="168.5" y="181.8" class="st44" width="20.2" height="10.2"/>
				<rect x="168.5" y="195.4" class="st44" width="20.2" height="10.2"/>
				<rect x="188.7" y="156.8" class="st45" width="10.6" height="56.4"/>
				<rect x="192" y="162.1" class="st46" width="4.2" height="45.8"/>
				<rect x="199.4" y="150" class="st47" width="11.8" height="63.2"/>
				<path class="st48" d="M202.1,208.2c0,1.3,1.4,2.3,3.2,2.3c1.8,0,3.2-1,3.2-2.3c0-1.3-1.4-2.3-3.2-2.3
					C203.5,205.9,202.1,206.9,202.1,208.2"/>
				<path class="st48" d="M202.1,202.1c0,1.3,1.4,2.3,3.2,2.3c1.8,0,3.2-1,3.2-2.3c0-1.3-1.4-2.3-3.2-2.3
					C203.5,199.8,202.1,200.8,202.1,202.1"/>
				<rect x="204.4" y="150" class="st48" width="1.8" height="44.8"/>
				<polygon class="st49" points="188.7,145.2 168.5,213.2 168.5,145.2 				"/>
				<g>
					<rect x="211.2" y="145.2" class="st45" width="13.9" height="68"/>
					<rect x="215.9" y="149.1" class="st48" width="3.6" height="29.7"/>
					<rect x="211.2" y="181.8" class="st42" width="13.8" height="10.2"/>
					<rect x="211.2" y="195.4" class="st42" width="13.9" height="10.2"/>
					<polygon class="st49" points="225.1,145.2 211.2,213.2 211.2,145.2 					"/>
				</g>
				<polygon class="st49" points="199.5,156.8 188.7,213.2 188.7,156.8 				"/>
				<polygon class="st49" points="211.2,150 199.4,213.2 199.4,150 				"/>
			</g>
			<g>
				<rect x="225" y="156.8" class="st47" width="16.7" height="56.4"/>
				<rect x="230.1" y="162.1" class="st46" width="6.6" height="45.8"/>
				<polygon class="st49" points="241.9,156.8 225,213.2 225,156.8 				"/>
			</g>
			<g>
				<rect x="241.9" y="156.8" class="st44" width="16.7" height="56.4"/>
				<rect x="247" y="162.1" class="st46" width="6.6" height="45.8"/>
				<polygon class="st49" points="258.8,156.8 241.9,213.2 241.9,156.8 				"/>
			</g>
		</g>
		<g>
			<g>
				<linearGradient id="SVGID_1_" gradientUnits="userSpaceOnUse" x1="631.9502" y1="277.1694" x2="631.9502" y2="178.436">
					<stop  offset="0" style="stop-color:#FFFFFF"/>
					<stop  offset="1" style="stop-color:#000000"/>
				</linearGradient>
				<polygon class="st50" points="746.3,225.2 581.2,225.2 517.6,276.8 682.7,276.8 				"/>
			</g>
		</g>
		<g>
			<g>
				<g>
					<g>
						<rect x="124.9" y="458.8" class="st51" width="13.9" height="156.4"/>
					</g>
					<g>
						<rect x="668.8" y="458.8" class="st51" width="13.9" height="156.4"/>
					</g>
					<g>
						<rect x="124.9" y="451.3" class="st51" width="557.8" height="27.9"/>
					</g>
				</g>
			</g>
			<g>
				<rect x="459" y="479.1" class="st20" width="209.8" height="45.6"/>
				<rect x="459" y="523.6" class="st52" width="209.8" height="1.2"/>
				<circle class="st52" cx="563.9" cy="501.9" r="4"/>
			</g>
			<g>
				<rect x="459" y="524.7" class="st20" width="209.8" height="45.6"/>
				<rect x="459" y="569.2" class="st52" width="209.8" height="1.2"/>
				<circle class="st52" cx="563.9" cy="547.5" r="4"/>
			</g>
			<g>
				<rect x="459" y="570.3" class="st20" width="209.8" height="45.6"/>
				<rect x="459" y="614.8" class="st52" width="209.8" height="1.2"/>
				<circle class="st52" cx="563.9" cy="593.1" r="4"/>
			</g>
		</g>
		<g>
			<circle class="st53" cx="424.4" cy="117.1" r="44.1"/>
			<circle class="st54" cx="424.4" cy="117.1" r="39.2"/>
			<g>
				<rect x="388.6" y="116.3" class="st53" width="4.5" height="1.6"/>
				<rect x="455.4" y="116.3" class="st53" width="4.5" height="1.6"/>
			</g>
			<g>
				<rect x="423.4" y="81.5" class="st53" width="1.6" height="4.5"/>
				<rect x="423.4" y="148.3" class="st53" width="1.6" height="4.5"/>
			</g>
			<line class="st55" x1="424.4" y1="117.1" x2="396.2" y2="117.1"/>
			<line class="st56" x1="424.4" y1="121.5" x2="424.4" y2="87.7"/>
			<line class="st56" x1="426" y1="118.9" x2="411.3" y2="103.5"/>
		</g>
		<g>
			<g>
				<g>
					<rect x="581.2" y="213.2" class="st37" width="165.2" height="12"/>
				</g>
			</g>
			<g>
				<g>
					<rect x="617.5" y="161.4" class="st10" width="4" height="45.8"/>
				</g>
				<g>
					<path class="st57" d="M628.8,162.5c0,5.1-4.2,9.3-9.3,9.3c-5.1,0-9.3-4.2-9.3-9.3c0-5.1,4.2-9.3,9.3-9.3
						C624.6,153.2,628.8,157.4,628.8,162.5z"/>
					<path class="st57" d="M619.9,162.3c-0.7-0.2-1.2-0.9-1-1.7l7.9-29.8c0.2-0.7,1-1.2,1.7-1l0,0c0.7,0.2,1.2,1,1,1.7l-7.9,29.8
						C621.4,162.1,620.6,162.5,619.9,162.3L619.9,162.3z"/>
					<path class="st57" d="M618.3,160.7c-0.4,0.3-1,0.2-1.3-0.2l-12-16.8c-0.3-0.4-0.2-1,0.2-1.3l0,0c0.4-0.3,1-0.2,1.3,0.2l12,16.8
						C618.8,159.8,618.7,160.4,618.3,160.7L618.3,160.7z"/>
					<path class="st57" d="M622.1,168.3c0.5-0.2,1,0,1.2,0.4l8.8,18.7c0.2,0.5,0,1-0.4,1.2l0,0c-0.5,0.2-1,0-1.2-0.4l-8.8-18.7
						C621.5,169,621.7,168.5,622.1,168.3L622.1,168.3z"/>
					<path class="st57" d="M615.9,163.9c0.1,0.5-0.3,1-0.9,1.1l-22.1,2.7c-0.5,0.1-1-0.3-1.1-0.9l0,0c-0.1-0.5,0.3-1,0.9-1.1
						l22.1-2.7C615.3,162.9,615.8,163.3,615.9,163.9L615.9,163.9z"/>
					<circle class="st58" cx="628.2" cy="130.8" r="7.2"/>
					<path class="st59" d="M604.2,137.3c2.4-0.1,4.4,1.8,4.5,4.2c0.1,2.4-1.8,4.4-4.2,4.5c-2.4,0.1-4.4-1.8-4.5-4.2
						C599.9,139.4,601.7,137.4,604.2,137.3z"/>
					<path class="st60" d="M635.8,189.3c-0.3,2.1-2.2,3.5-4.3,3.2c-2.1-0.3-3.5-2.2-3.2-4.3c0.3-2.1,2.2-3.5,4.3-3.2
						C634.7,185.3,636.1,187.3,635.8,189.3z"/>
					<path class="st61" d="M595.3,167.3c0,2.7-2.2,4.9-4.9,4.9c-2.7,0-4.9-2.2-4.9-4.9c0-2.7,2.2-4.9,4.9-4.9
						C593.1,162.3,595.3,164.5,595.3,167.3z"/>
				</g>
				<g>
					<polygon class="st62" points="640,213.2 634,213.2 634,210.1 605.1,210.1 605.1,213.2 599.1,213.2 599.1,204.1 640,204.1 					
						"/>
				</g>
			</g>
			<g>
				<g>
					<rect x="648" y="195.4" class="st42" width="83.2" height="17.8"/>
					<rect x="652.8" y="202.5" class="st43" width="36.4" height="4.6"/>
					<rect x="692.9" y="195.4" class="st44" width="12.6" height="17.7"/>
					<rect x="709.5" y="195.4" class="st44" width="12.5" height="17.7"/>
					<rect x="662.2" y="186" class="st45" width="69.1" height="9.3"/>
					<rect x="668.7" y="188.9" class="st46" width="56.1" height="3.7"/>
					<rect x="653.9" y="175.7" class="st47" width="77.4" height="10.4"/>
					<path class="st48" d="M725.1,183.7c1.5,0,2.8-1.3,2.8-2.8c0-1.5-1.3-2.8-2.8-2.8c-1.5,0-2.8,1.3-2.8,2.8
						C722.3,182.4,723.6,183.7,725.1,183.7"/>
					<path class="st48" d="M717.7,183.7c1.5,0,2.8-1.3,2.8-2.8c0-1.5-1.3-2.8-2.8-2.8c-1.5,0-2.8,1.3-2.8,2.8
						C714.9,182.4,716.1,183.7,717.7,183.7"/>
					<rect x="653.9" y="180" class="st48" width="54.8" height="1.6"/>
				</g>
				<polygon class="st49" points="648,195.4 731.3,213.2 648,213.2 				"/>
				<polygon class="st49" points="662.2,185.9 731.3,195.4 662.2,195.4 				"/>
				<polygon class="st49" points="653.9,175.7 731.3,186 653.9,186 				"/>
			</g>
		</g>
		<g id="chemistry_1_">
			<g>
				<g>
					<path class="st3" d="M528.1,416.5h-1.3v-6.9c0-3.2-2.6-5.7-5.7-5.7c-3.2,0-5.7,2.6-5.7,5.7v6.9H514v-6.9c0-3.9,3.2-7.1,7.1-7.1
						c3.9,0,7.1,3.2,7.1,7.1V416.5z"/>
				</g>
				<g>
					<path class="st3" d="M540.8,416.5h-1.3v-6.9c0-3.2-2.6-5.7-5.7-5.7c-3.2,0-5.7,2.6-5.7,5.7v6.9h-1.3v-6.9
						c0-3.9,3.2-7.1,7.1-7.1c3.9,0,7.1,3.2,7.1,7.1V416.5z"/>
				</g>
				<g>
					<polygon class="st63" points="484.4,442 484.4,442 484.4,438.9 480.2,438.9 480.2,442 475.4,445.4 477.9,451 486.9,451 
						489.2,445.4 					"/>
					<polygon class="st64" points="486.9,451 489.2,445.4 484.4,442 484.4,442 484.4,438.9 482.3,438.9 482.3,451 					"/>
					<polygon class="st65" points="477.1,445.4 487.3,445.4 485.7,450.3 478.9,450.3 					"/>
					<path class="st66" d="M482.7,447.5c0,0.2-0.1,0.3-0.3,0.3l0,0c-0.2,0-0.3-0.1-0.3-0.3v-9c0-0.2,0.1-0.3,0.3-0.3l0,0
						c0.2,0,0.3,0.1,0.3,0.3V447.5z"/>
					<path class="st67" d="M482.3,438.7c-1.1,0-3.6-1-2.4-4.3c0.8-2.3,2.1-2.6,2.2-5.8C485.3,432.4,487.1,438.7,482.3,438.7z"/>
					<path class="st68" d="M482.3,438.7c-0.7,0-2.3-0.6-1.5-2.8c0.5-1.5,1.4-1.7,1.4-3.8C484.3,434.5,485.5,438.7,482.3,438.7z"/>
				</g>
				<g>
					<rect x="465.7" y="378.6" class="st10" width="1.3" height="70.4"/>
				</g>
				<g>
					<rect x="507.6" y="418.3" class="st10" width="1.3" height="30.7"/>
				</g>
				<g>
					<rect x="546.7" y="418.3" class="st10" width="1.3" height="30.7"/>
				</g>
				<g>
					<rect x="459.5" y="385.5" class="st10" width="18.4" height="1.3"/>
				</g>
				<g>
					<g>
						<g>
							<g>
								<path class="st22" d="M483.1,423.9c-6.5,0-11.7-5.3-11.7-11.7c0-5.2,3.4-9.7,8.4-11.2v-18.8h-0.5v-3.5h7.8v3.5h-0.5v18.8
									c4.9,1.5,8.4,6,8.4,11.2C494.8,418.6,489.5,423.9,483.1,423.9z"/>
							</g>
						</g>
						<path class="st23" d="M486.4,400.9v-18.8h0.5v-3.5h-3.9v45.2c6.5,0,11.7-5.3,11.7-11.7C494.8,406.9,491.4,402.4,486.4,400.9z"
							/>
						<path class="st19" d="M473.7,412.1c0,5.2,4.2,9.3,9.3,9.3c5.2,0,9.3-4.2,9.3-9.3H473.7z"/>
						<g>
							<circle class="st19" cx="483" cy="404.5" r="1.2"/>
							<circle class="st19" cx="484.8" cy="406.7" r="1"/>
							<circle class="st19" cx="483.2" cy="382.6" r="1"/>
							<circle class="st19" cx="483.7" cy="409.5" r="0.6"/>
							<circle class="st19" cx="482.9" cy="391.2" r="0.6"/>
						</g>
						<g>
							<g>
								<circle class="st3" cx="482.7" cy="416.9" r="1"/>
								<circle class="st3" cx="483.8" cy="414.1" r="0.6"/>
							</g>
						</g>
					</g>
					<circle class="st19" cx="474.8" cy="412.1" r="1.1"/>
					<circle class="st19" cx="478.9" cy="412.1" r="1.1"/>
					<circle class="st19" cx="477.9" cy="411.1" r="1.1"/>
					<circle class="st19" cx="481.7" cy="412.1" r="1.1"/>
					<circle class="st19" cx="483.9" cy="412.1" r="1.1"/>
					<circle class="st19" cx="486.1" cy="411.3" r="1.3"/>
					<circle class="st19" cx="488.1" cy="412.1" r="1.3"/>
					<circle class="st19" cx="490.3" cy="412.1" r="1.3"/>
					<circle class="st19" cx="491.1" cy="412.1" r="1.3"/>
				</g>
				<g>
					<path class="st69" d="M489.4,386.1c0,1-0.9,1.9-1.9,1.9h-8.9c-1,0-1.9-0.9-1.9-1.9l0,0c0-1,0.9-1.9,1.9-1.9h8.9
						C488.6,384.2,489.4,385.1,489.4,386.1L489.4,386.1z"/>
					<rect x="481.6" y="384.2" class="st70" width="2.9" height="3.8"/>
				</g>
				<g>
					<path class="st3" d="M522.1,403.3h-1.3v-33.3c0-5.9-5.8-10.8-12.9-10.8h-11.4c-7.1,0-12.9,4.8-12.9,10.8v11.9h-1.3v-11.9
						c0-6.7,6.4-12.1,14.3-12.1h11.4c7.9,0,14.3,5.4,14.3,12.1V403.3z"/>
				</g>
				<g>
					<path class="st3" d="M567,413.7h-1.3v-11.6c0-5.9-4.8-10.8-10.8-10.8h-9.7c-5.9,0-10.8,4.8-10.8,10.8v1.1h-1.3v-1.1
						c0-6.7,5.4-12.1,12.1-12.1h9.7c6.7,0,12.1,5.4,12.1,12.1V413.7z"/>
				</g>
				<g>
					<path class="st22" d="M519,411.4h-0.2h-7.4h-0.2v0c-0.4,0.1-0.7,0.5-0.7,0.9c0,0.4,0.3,0.8,0.7,0.9v25.6l0,0.9l0.1,0.4
						c0.4,1.6,1.9,2.4,3.7,2.4c1.8,0,3.3-0.8,3.7-2.4l0.1-0.4v-26.5h0.2c0.5,0,0.9-0.4,0.9-0.9C520,411.8,519.6,411.4,519,411.4z"/>
					<path class="st23" d="M519,411.4h-0.2h-3.6v31.2c1.7-0.1,3.6-0.7,3.6-2.9c0-1.2,0-26.5,0-26.5h0.2c0.5,0,0.9-0.4,0.9-0.9
						C520,411.8,519.6,411.4,519,411.4z"/>
					<path class="st19" d="M517.5,438.5c0,1.2-1,2.2-2.2,2.2c-1.2,0-2.2-1-2.2-2.2l0-1.1v-18.6h4.5V438.5z"/>
				</g>
				<g>
					<path class="st22" d="M531.2,411.4H531h-7.4h-0.2v0c-0.4,0.1-0.7,0.5-0.7,0.9c0,0.4,0.3,0.8,0.7,0.9v25.6l0,0.9l0.1,0.4
						c0.4,1.6,1.9,2.4,3.7,2.4s3.3-0.8,3.7-2.4l0.1-0.4v-26.5h0.2c0.5,0,0.9-0.4,0.9-0.9C532.2,411.8,531.8,411.4,531.2,411.4z"/>
					<path class="st23" d="M531.2,411.4H531h-3.6v31.2c1.7-0.1,3.6-0.7,3.6-2.9c0-1.2,0-26.5,0-26.5h0.2c0.5,0,0.9-0.4,0.9-0.9
						C532.2,411.8,531.8,411.4,531.2,411.4z"/>
					<path class="st71" d="M529.7,438.5c0,1.2-1,2.2-2.2,2.2s-2.2-1-2.2-2.2l0-1.1v-18.6h4.5V438.5z"/>
				</g>
				<g>
					<path class="st22" d="M544,411.4h-0.2h-7.4h-0.2v0c-0.4,0.1-0.7,0.5-0.7,0.9c0,0.4,0.3,0.8,0.7,0.9v25.6l0,0.9l0.1,0.4
						c0.4,1.6,1.9,2.4,3.7,2.4c1.8,0,3.3-0.8,3.7-2.4l0.1-0.4v-26.5h0.2c0.5,0,0.9-0.4,0.9-0.9C544.9,411.8,544.5,411.4,544,411.4z"
						/>
					<path class="st23" d="M544,411.4h-0.2h-3.6v31.2c1.7-0.1,3.6-0.7,3.6-2.9c0-1.2,0-26.5,0-26.5h0.2c0.5,0,0.9-0.4,0.9-0.9
						C544.9,411.8,544.5,411.4,544,411.4z"/>
					<path class="st31" d="M542.4,438.5c0,1.2-1,2.2-2.2,2.2c-1.2,0-2.2-1-2.2-2.2l0-1.1v-18.6h4.5V438.5z"/>
				</g>
				<line class="st72" x1="504" y1="418.3" x2="551" y2="418.3"/>
				<g>
					<circle class="st57" cx="466.4" cy="386.1" r="3"/>
					<circle class="st69" cx="466.4" cy="386.1" r="1.6"/>
				</g>
				<g>
					<rect x="587" y="398.6" class="st10" width="1.3" height="49.7"/>
				</g>
				<g>
					<rect x="572.8" y="409.2" class="st10" width="22.5" height="1.3"/>
				</g>
				<g>
					<g>
						<path class="st22" d="M575.6,438c1.9-2.1,3.1-4.9,3.1-8c0-5.2-3.4-9.7-8.4-11.2v-16.1h0.5v-3.5h-7.8v3.5h0.5v16.1
							c-4.9,1.5-8.4,6-8.4,11.2c0,3.1,1.2,5.9,3.1,8H575.6z"/>
						<path class="st23" d="M575.6,438c1.9-2.1,3.1-4.9,3.1-8c0-5.2-3.4-9.7-8.4-11.2v-16.1h0.5v-3.5H567V438H575.6z"/>
					</g>
					<g>
						<g>
							<path class="st31" d="M574.6,435.5c1.1-1.5,1.7-3.4,1.7-5.4c0-5.2-4.2-9.3-9.3-9.3c-5.2,0-9.3,4.2-9.3,9.3
								c0,2,0.6,3.9,1.7,5.4H574.6z"/>
						</g>
					</g>
				</g>
				<g>
					<path class="st69" d="M573.4,409.9c0,1-0.9,1.9-1.9,1.9h-8.9c-1,0-1.9-0.9-1.9-1.9l0,0c0-1,0.9-1.9,1.9-1.9h8.9
						C572.5,408,573.4,408.8,573.4,409.9L573.4,409.9z"/>
					<rect x="565.5" y="408" class="st70" width="2.9" height="3.8"/>
				</g>
				<g>
					<circle class="st57" cx="587.7" cy="409.9" r="3"/>
					<circle class="st69" cx="587.7" cy="409.9" r="1.6"/>
				</g>
				<g>
					<circle class="st22" cx="565.7" cy="424.2" r="1.2"/>
					<circle class="st22" cx="567.5" cy="426.3" r="1"/>
					<circle class="st22" cx="566.4" cy="429.2" r="0.6"/>
					<g>
						<g>
							<circle class="st22" cx="568.7" cy="433.2" r="1"/>
							<circle class="st22" cx="569.9" cy="430.4" r="0.6"/>
						</g>
					</g>
				</g>
				<g>
					<polygon class="st62" points="473.3,451 471.2,451 471.2,450 461.5,450 461.5,451 459.5,451 459.5,448 473.3,448 					"/>
				</g>
				<g>
					<polygon class="st73" points="548.3,451 546.3,451 546.3,450 506.7,450 506.7,451 504.7,451 504.7,448 548.3,448 					"/>
				</g>
				<g>
					<polygon class="st62" points="594.6,451 592.6,451 592.6,450 582.8,450 582.8,451 580.8,451 580.8,448 594.6,448 					"/>
				</g>
			</g>
		</g>
		<g>
			<g>
				<g>
					<path class="st74" d="M740.3,599.7c0,0-7.5-149.5-6.6-150.2l28-5.4c0,0.3-4,158.5-4,158.5L740.3,599.7z"/>
					<path class="st75" d="M740.3,599.7c0,0-11.8,3.5-16.3,3.8c-5.8,0.4-7.2,7.3-7.2,7.3h39.5c0,0,1.9-4.1,1.3-8.2
						c-7.5-1.2-16.3-2.9-16.3-2.9"/>
					<path class="st21" d="M749.6,599.7c0,0-12.9-154.9-12.1-155.6h33.4c0,0.3-4,158.5-4,158.5L749.6,599.7z"/>
					<path class="st10" d="M749.6,599.7c0,0-11.8,3.5-16.3,3.8c-5.8,0.4-7.2,7.3-7.2,7.3h39.5c0,0,1.9-4.1,1.3-8.2
						c-7.5-1.2-16.3-2.9-16.3-2.9"/>
					<polyline class="st11" points="757.8,361.1 753.8,329.7 735.4,307.8 745.2,370.3 					"/>
					<g>
						<path class="st11" d="M713.1,320.8c0,0,2.9,40.2,20.1,40.2c10.8,0,18.2-6.9,18.2-19l-1.7-21.1"/>
						<path class="st12" d="M744.7,322.9c0,0-21.4,7.8-30.1,0c-8.7-7.8,4-16.4,17.6-16.4c13.6,0,17.5,6.2,17.5,6.2L744.7,322.9z"/>
						<path class="st12" d="M749.7,312.6c0,0,5.2,0.2,7.1,4.8c1.8,4.6,0.6,23.8-3,28.4c-0.6-4.8-4.9-13.9-8-16.6
							c-3.2-2.7-5.2-2.3-7,2.9c1-6.5,0.5-9.2,0.5-9.2L749.7,312.6z"/>
					</g>
					<path class="st3" d="M770.9,444.1c0,0,4.8-46.8,0-69.9c-4.8-23.1-32.4-22-36.4,0c-3.9,22,6.2,37.2,5.6,46.2
						c-0.6,9-2.7,23.7-2.7,23.7H770.9z"/>
					<path class="st3" d="M663.7,403.8c0,0,48.9-4,68.3-27.3c15.7-18.7,28.5,0,12.6,12.7c-16.5,13.1-43.7,22.7-80.7,21.6
						C663.9,409.2,663.7,403.8,663.7,403.8z"/>
					<path class="st13" d="M663.9,410.8c0,0-8.5,1-9.5-0.8c-0.4-0.5,0.4-0.8,0.9-0.9c-1.2-0.4-1.5-0.4-1.5-1c0-0.6,1.6-0.8,1.6-0.8
						s-2.1-0.1-2-1.1c0-1,1.8-0.9,1.8-0.9s-1.8,0-1.8-0.8c0-0.8,0.8-0.8,1.5-0.9c0.7,0,4.8,0.7,4.8,0.7s-2.3-1.1-3.5-1.3
						c-1.3-0.2-1.4-1.7,1.2-1.3c2.5,0.4,6.4,2.3,6.4,2.3L663.9,410.8z"/>
				</g>
			</g>
			<path class="st3" d="M759,358.4c0,0,14.1,2.6,15.7,18c2.2,21.6,4.3,135.3,4.3,135.3h-48.5c0,0,0-93.7,0-98.7s0.9-42.4,12.2-48.6
				C754.1,358.3,759,358.4,759,358.4z"/>
			<path class="st3" d="M714.7,339.3c0,0,13.8-3.7,20.7,6.7c6.9,10.3,2.7,13.3,0,15C732.7,362.7,719.7,364,714.7,339.3z"/>
			<line class="st76" x1="729.9" y1="341.9" x2="739.1" y2="331.1"/>
			<line class="st76" x1="737.1" y1="351.4" x2="755.8" y2="345"/>
		</g>
		<linearGradient id="SVGID_2_" gradientUnits="userSpaceOnUse" x1="171.6714" y1="277.1694" x2="171.6714" y2="178.436">
			<stop  offset="0" style="stop-color:#FFFFFF"/>
			<stop  offset="1" style="stop-color:#000000"/>
		</linearGradient>
		<polygon class="st77" points="105.1,225.2 70.6,253.2 70.6,276.8 209.2,276.8 272.8,225.2 		"/>
		<linearGradient id="SVGID_3_" gradientUnits="userSpaceOnUse" x1="341.351" y1="609.9999" x2="341.351" y2="359.9406">
			<stop  offset="0" style="stop-color:#FFFFFF"/>
			<stop  offset="1" style="stop-color:#000000"/>
		</linearGradient>
		<polygon class="st78" points="124.9,479.1 0,583 0,617 516.9,617 682.7,479.1 		"/>
	</g>
</g>
</svg>
